<svg id="Ebene_1" data-name="Ebene 1" xmlns="http://www.w3.org/2000/svg" viewBox="0 0 24 24"><defs><style>.cls-1{stroke:#000;stroke-miterlimit:10;stroke-width:2px;}</style></defs><circle class="cls-1" cx="11.99" cy="3.92" r="2.51"/><path class="cls-1" d="M12.86,8.77H11a1.12,1.12,0,0,0-1,.71L7.33,16.16a1.11,1.11,0,0,0,1,1.51h1.2A.33.33,0,0,1,9.9,18v3.05A1.11,1.11,0,0,0,11,22.16H12.8a1.11,1.11,0,0,0,1.11-1.11V18a.34.34,0,0,1,.34-.33h1.2a1.11,1.11,0,0,0,1-1.51L13.9,9.48A1.11,1.11,0,0,0,12.86,8.77Z"/></svg>