<svg xmlns="http://www.w3.org/2000/svg" xmlns:xlink="http://www.w3.org/1999/xlink" width="25.861" height="26.463" viewBox="0 0 25.861 26.463"><defs><clipPath id="a"><path d="M27.561,12.826H15.231v5.112h7.1c-.662,3.248-3.428,5.112-7.1,5.112a7.819,7.819,0,1,1,0-15.637A7.649,7.649,0,0,1,20.1,9.157l3.849-3.849a13.223,13.223,0,1,0-8.721,23.155c6.616,0,12.63-4.811,12.63-13.231A10.977,10.977,0,0,0,27.561,12.826Z" transform="translate(-2 -2)"/></clipPath></defs><g clip-path="url(#a)"><path d="M0,26.637V11l10.224,7.819Z" transform="translate(-1.203 -5.587)" fill="#fbbc05"/></g><g clip-path="url(#a)"><path d="M0,6.616l10.224,7.819,4.21-3.669L28.868,8.42V0H0Z" transform="translate(-1.203 -1.203)" fill="#ea4335"/></g><g clip-path="url(#a)"><path d="M0,22.253,18.043,8.42l4.751.6L28.868,0V28.868H0Z" transform="translate(-1.203 -1.203)" fill="#34a853"/></g><g clip-path="url(#a)"><path d="M34.05,33.253,15.406,18.819,13,17.014,34.05,11Z" transform="translate(-6.384 -5.587)" fill="#4285f4"/></g></svg>