<svg width="1440" height="900" viewBox="0 0 1440 900" fill="none" xmlns="http://www.w3.org/2000/svg">
<g clip-path="url(#clip0_19_2)">
<rect width="1440" height="900" transform="matrix(-1 0 0 1 1440 0)" fill="black"/>
<g filter="url(#filter0_f_19_2)">
<path d="M604.747 507.475C964.698 307.594 1328.13 -70.7114 1474.75 -88.0257C1737.25 -119.026 1698.86 598.176 1421.25 854.474C1160.75 1094.97 -647.479 1341.18 -203.753 854.474C32.3173 595.536 298.411 677.583 604.747 507.475Z" fill="#280075"/>
</g>
<g filter="url(#filter1_f_19_2)">
<path d="M788.747 676.475C1148.7 476.594 1512.13 98.2886 1658.75 80.9743C1921.25 49.9744 1882.86 767.176 1605.25 1023.47C1344.75 1263.97 -463.479 1510.18 -19.7532 1023.47C216.317 764.536 482.411 846.583 788.747 676.475Z" fill="#CF00A3"/>
</g>
<g filter="url(#filter2_f_19_2)">
<path d="M648.54 1041.48C568.718 956.3 1053.02 401.445 1361.78 195.415C1670.54 -10.6159 1646.35 474.593 1386.41 721.427C1170.05 926.873 728.361 1126.67 648.54 1041.48Z" fill="#FF8993"/>
<path d="M648.54 1041.48C568.718 956.3 1053.02 401.445 1361.78 195.415C1670.54 -10.6159 1646.35 474.593 1386.41 721.427C1170.05 926.873 728.361 1126.67 648.54 1041.48Z" stroke="#FF1D74" stroke-width="40"/>
</g>
</g>
<defs>
<filter id="filter0_f_19_2" x="-523.508" y="-339" width="2425.51" height="1723.59" filterUnits="userSpaceOnUse" color-interpolation-filters="sRGB">
<feFlood flood-opacity="0" result="BackgroundImageFix"/>
<feBlend mode="normal" in="SourceGraphic" in2="BackgroundImageFix" result="shape"/>
<feGaussianBlur stdDeviation="125" result="effect1_foregroundBlur_19_2"/>
</filter>
<filter id="filter1_f_19_2" x="-389.508" y="-220" width="2525.51" height="1823.59" filterUnits="userSpaceOnUse" color-interpolation-filters="sRGB">
<feFlood flood-opacity="0" result="BackgroundImageFix"/>
<feBlend mode="normal" in="SourceGraphic" in2="BackgroundImageFix" result="shape"/>
<feGaussianBlur stdDeviation="150" result="effect1_foregroundBlur_19_2"/>
</filter>
<filter id="filter2_f_19_2" x="469.796" y="-24.3474" width="1287.56" height="1255.98" filterUnits="userSpaceOnUse" color-interpolation-filters="sRGB">
<feFlood flood-opacity="0" result="BackgroundImageFix"/>
<feBlend mode="normal" in="SourceGraphic" in2="BackgroundImageFix" result="shape"/>
<feGaussianBlur stdDeviation="75" result="effect1_foregroundBlur_19_2"/>
</filter>
<clipPath id="clip0_19_2">
<rect width="1440" height="900" fill="white" transform="matrix(-1 0 0 1 1440 0)"/>
</clipPath>
</defs>
</svg>
